_________________________  Visit us at _________________________
  
http://p2pdl.com  ____________________________  http://p2pdl.com


Avril Lavigne - Heres To Never Growing Up 2013 M4A+MP4 (1080p) x264 [VX] [P2PDL]
                     
                       1080p Full HD MP4 Video
                                 +
                       128 Kbps/VBR M4A Audio

General
Complete name                  : Avril Lavigne - Here's To Never Growing Up (1080p) x264 [VX].mp4
Format                         : MPEG-4
File size                      : 45.0 MiB
Duration                       : 3mn 44s
Overall bit rate mode          : Variable
Overall bit rate               : 1 682 Kbps

Video
Format                         : AVC
Format profile                 : High@L4.0
Bit rate                       : 1 550 Kbps
Width                          : 1 920 pixels
Height                         : 1 080 pixels
Display aspect ratio           : 16:9
Frame rate mode                : Variable
Frame rate                     : 23.976 fps
Bit depth                      : 8 bits
Stream size                    : 41.4 MiB (92%)
Writing library                : x264 core 129

Audio
Format                         : AAC
Bit rate mode                  : Variable
Channel(s)                     : 2 channels
Channel positions              : Front: L R
Sampling rate                  : 48.0 KHz
Stream size                    : 3.40 MiB (8%)

Subtitles                      : No

Screens:
 
http://ultraimg.com/images/dofQW.jpg 
http://ultraimg.com/images/giG1a.jpg 
http://ultraimg.com/images/48pKq.jpg 
http://ultraimg.com/images/Fxulb.jpg

------------------------------------------------------------------------

Notes:

* Recommended to use latest version VLC Media Player.
* Install shark007 codecs in case of any kind of problem in playback (For non-VLC Media Player users).
* Alternatively, install Core AVC codecs, the fastest decoder that there is coupled with Community Center Codec Pack and play on Windows Media Player Classic.

Encoder Notes:Looking For Early Access To Anything You Can Provide DVDScr, R5, DVDR, BluRay, Direct
Audio, Music Releases and Seedboxes. We require dedicated servers, so as to do more
and fast releases of movies.
If You Got anything to offer contact us at "contact@p2pdl.com".

Face book Fan Page:   
http://www.fb.me/p2pdl